<svg width="122" height="34" viewBox="0 0 122 34" fill="none" xmlns="http://www.w3.org/2000/svg">
<path d="M23.9919 13.4402V23.761C23.9919 24.6349 24.3415 25.0719 25.0407 25.0719C25.3108 25.0719 25.6366 25.0242 26.0179 24.9289L26.2563 26.359C25.6048 26.5656 24.9374 26.6689 24.2541 26.6689C22.8399 26.6689 22.1328 25.7711 22.1328 23.9755V14.1315L20.7026 13.9408V12.7013H23.2769C23.7536 12.7013 23.9919 12.9476 23.9919 13.4402ZM23.0862 10.4847C22.7684 10.4847 22.4823 10.3655 22.2281 10.1271C21.9897 9.88876 21.8706 9.61069 21.8706 9.29288C21.8706 8.95918 21.9897 8.67316 22.2281 8.43481C22.4823 8.18056 22.7684 8.05344 23.0862 8.05344C23.4199 8.05344 23.7059 8.18056 23.9442 8.43481C24.1826 8.67316 24.3018 8.95918 24.3018 9.29288C24.3018 9.61069 24.1826 9.88876 23.9442 10.1271C23.7059 10.3655 23.4199 10.4847 23.0862 10.4847Z" fill="white"/>
<path d="M32.1416 19.6613V24.9289L34.5251 25.0957V26.3352H28.5901V25.0957L30.2586 24.9289V14.1315L28.5901 13.9408V12.7013H31.1167C31.6093 12.7013 31.8556 12.9476 31.8556 13.4402V16.3958C32.2846 15.2994 32.9281 14.3698 33.7862 13.6071C34.6602 12.8285 35.7089 12.4153 36.9325 12.3676V14.0123C35.5977 14.06 34.4616 14.6002 33.524 15.6331C32.6024 16.666 32.1416 18.0087 32.1416 19.6613Z" fill="white"/>
<path d="M46.013 7.98193H48.6111C49.1196 7.98193 49.3579 8.22823 49.3261 8.72083V23.761C49.3261 24.6349 49.6678 25.0719 50.3511 25.0719C50.6371 25.0719 50.9708 25.0242 51.3522 24.9289L51.5667 26.359C50.947 26.5656 50.3352 26.6689 49.7313 26.6689C48.3648 26.6689 47.61 25.9538 47.467 24.5237C46.4182 25.9538 45.1073 26.6689 43.5341 26.6689C42.6284 26.6689 41.8259 26.4544 41.1268 26.0253C40.4435 25.5963 39.9191 25.0322 39.5536 24.333C38.8068 22.9188 38.4334 21.3139 38.4334 19.5183C38.4334 17.675 38.775 16.078 39.4583 14.7273C39.8397 13.9964 40.4038 13.4243 41.1506 13.0112C41.8974 12.5822 42.8429 12.3676 43.987 12.3676C45.147 12.3676 46.2991 12.6616 47.4431 13.2496V9.41206L46.013 9.22137V7.98193ZM44.1777 13.8216C41.6035 13.8216 40.3164 15.7205 40.3164 19.5183C40.3164 21.0437 40.5547 22.3388 41.0314 23.4034C41.2857 23.9755 41.6591 24.4284 42.1517 24.7621C42.6602 25.0799 43.2561 25.2388 43.9393 25.2388C45.3218 25.2388 46.4897 24.5158 47.4431 23.0697V14.632C46.458 14.0917 45.3695 13.8216 44.1777 13.8216Z" fill="white"/>
<path d="M69.0628 12.7013H70.9458V13.9408L69.7778 14.1315L66.3217 26.3352H64.2242L61.4831 15.0134L58.7897 26.3352H56.6684L52.807 12.7013H54.6424L57.8125 24.4045L60.625 12.7013H62.365L65.1776 24.4045L68.1809 13.3211C68.308 12.9079 68.602 12.7013 69.0628 12.7013Z" fill="white"/>
<path d="M80.7619 23.9755V23.6418C79.729 25.6598 78.1082 26.6689 75.8994 26.6689C74.8348 26.6689 73.9847 26.3431 73.3491 25.6916C72.7134 25.0401 72.3956 24.1503 72.3956 23.0221C72.3956 21.4807 73.0312 20.3207 74.3025 19.5421C75.5737 18.7635 77.7268 18.3742 80.7619 18.3742V17.3731C80.7619 16.0065 80.5156 15.069 80.023 14.5605C79.5304 14.052 78.7279 13.7978 77.6156 13.7978C76.5192 13.7978 75.2877 14.1791 73.9211 14.9419L73.3014 13.5117C74.9381 12.749 76.4953 12.3676 77.9731 12.3676C80.2772 12.3676 81.7153 13.178 82.2873 14.7989C82.5257 15.4662 82.6449 16.2767 82.6449 17.2301V23.761C82.6449 24.6349 82.9785 25.0719 83.6459 25.0719C83.8684 25.0719 84.1942 25.0242 84.6232 24.9289L84.8377 26.359C84.218 26.5656 83.6142 26.6689 83.0262 26.6689C81.5166 26.6689 80.7619 25.7711 80.7619 23.9755ZM80.7619 19.5898C76.3761 19.5898 74.1833 20.6862 74.1833 22.8791C74.1833 23.61 74.3819 24.1821 74.7792 24.5952C75.1923 24.9925 75.7644 25.1911 76.4953 25.1911C77.6394 25.1911 78.6246 24.7303 79.4509 23.8086C80.2772 22.887 80.7142 21.5761 80.7619 19.8758V19.5898Z" fill="white"/>
<path d="M86.4419 14.0123V12.7013H88.5156V9.60274L90.3986 9.1737V12.7013H92.9967V14.0123H90.3986V23.761C90.3986 24.619 90.7482 25.0481 91.4474 25.0481C91.9082 25.0481 92.3531 24.9607 92.7822 24.7859L92.9967 26.2398C92.2498 26.5259 91.495 26.6689 90.7323 26.6689C89.9855 26.6689 89.4293 26.4544 89.0638 26.0253C88.6984 25.5804 88.5156 24.8812 88.5156 23.9278V14.0123H86.4419Z" fill="white"/>
<path d="M100.78 26.6689C99.7788 26.6689 98.8969 26.4544 98.1341 26.0253C97.3873 25.5963 96.8073 25.0163 96.3941 24.2853C95.5679 22.887 95.1547 21.2662 95.1547 19.4229C95.1547 17.0712 95.7665 15.2358 96.99 13.9169C97.4191 13.4561 97.9832 13.0827 98.6823 12.7967C99.3815 12.5107 100.176 12.3676 101.066 12.3676C102.512 12.3676 103.95 12.7331 105.38 13.4641L104.76 14.8465C103.553 14.1632 102.321 13.8216 101.066 13.8216C100.271 13.8216 99.596 13.9964 99.0399 14.346C98.4837 14.6797 98.0626 15.1405 97.7766 15.7284C97.5065 16.3005 97.3078 16.8884 97.1807 17.4923C97.0695 18.0961 97.0139 18.7396 97.0139 19.4229C97.0139 20.1062 97.0695 20.7577 97.1807 21.3774C97.2919 21.9971 97.4747 22.6089 97.7289 23.2127C97.9832 23.8166 98.3725 24.3012 98.8969 24.6667C99.4212 25.0322 100.049 25.2149 100.78 25.2149C102.401 25.2149 103.521 24.3886 104.141 22.736L105.666 23.2366C104.792 25.5248 103.163 26.6689 100.78 26.6689Z" fill="white"/>
<path d="M117.322 23.9755V16.6342C117.322 15.6331 117.139 14.918 116.774 14.489C116.424 14.0441 115.812 13.8216 114.938 13.8216C113.429 13.8216 111.959 14.4095 110.529 15.5854V24.9289L112.174 25.0957V26.3352H106.977V25.0957L108.646 24.9289V9.41206L106.977 9.22137V7.98193H109.504C109.997 7.98193 110.243 8.22029 110.243 8.697V14.346C111.88 13.0271 113.564 12.3676 115.296 12.3676C116.663 12.3676 117.656 12.7172 118.275 13.4164C118.895 14.1156 119.205 15.1882 119.205 16.6342V23.761C119.205 24.6349 119.547 25.0719 120.23 25.0719C120.468 25.0719 120.802 25.0242 121.231 24.9289L121.446 26.359C120.794 26.5656 120.127 26.6689 119.443 26.6689C118.029 26.6689 117.322 25.7711 117.322 23.9755Z" fill="white"/>
<path d="M14.2435 1.70462C13.222 1.75569 11.9707 1.78123 11.5366 1.75569C8.72757 -0.236162 4.79493 0.0702779 2.34341 2.52179C1.06658 3.79862 0.300482 5.53511 0.24941 7.32268L0.0961914 32.655C0.0961918 32.8593 0.172802 33.038 0.300485 33.1657C0.428168 33.2934 0.606922 33.37 0.811215 33.37C4.13098 33.37 7.11876 32.0166 9.28937 29.846C11.2557 27.8797 12.5581 25.1983 12.7879 22.2616C13.1965 21.9552 13.5795 21.6232 13.9626 21.2401C18.0484 17.1543 18.0484 10.5148 13.9626 6.42889C13.5029 5.96923 12.9922 5.56065 12.4559 5.1776L14.7542 2.8793C14.9585 2.67501 15.0096 2.36857 14.9074 2.11321C14.8053 1.85784 14.5244 1.67908 14.2435 1.70462ZM1.52624 31.94L1.62839 10.7446C7.09322 11.1532 11.4089 15.7753 11.4089 21.3423C11.4089 26.9603 7.04215 31.5825 1.52624 31.94ZM10.8471 4.84562C10.6939 4.99884 10.6173 5.22867 10.6428 5.4585C10.6683 5.68833 10.796 5.86709 11.0003 5.96923C11.7154 6.37782 12.3793 6.88855 12.9666 7.47589C16.4907 10.9999 16.5162 16.7457 12.9666 20.2953C12.9156 20.3464 12.839 20.423 12.7879 20.474C12.3538 14.524 7.57842 9.74865 1.65392 9.34007L1.65392 7.39929C1.705 5.91816 2.29234 4.56472 3.33934 3.51772C5.35673 1.50033 8.57435 1.29603 10.8471 2.95591C11.0259 3.0836 11.128 3.18574 12.507 3.13467L10.8216 4.82009L10.8471 4.84562Z" fill="white"/>
</svg>
