<svg width="759" height="80" viewBox="0 0 759 80" fill="none" xmlns="http://www.w3.org/2000/svg">
<path d="M38.4883 79.2305C34.0742 79.2305 30.207 78.3906 26.8867 76.7109C23.6055 75.0312 20.793 72.4922 18.4492 69.0938L18.3906 78.2344C17.1406 78.1953 15.6562 78.1562 13.9375 78.1172C12.2578 78.1172 10.5586 78.0977 8.83984 78.0586C7.12109 78.0586 5.5 78.0391 3.97656 78C2.49219 78 1.32031 78 0.460938 78V72.7852C2.60938 72.7852 4.26953 72.707 5.44141 72.5508C6.61328 72.3945 7.45312 72.1406 7.96094 71.7891C8.50781 71.4375 8.82031 71.0078 8.89844 70.5C9.01562 69.9922 9.07422 69.3867 9.07422 68.6836V10.7344C9.07422 9.95312 8.89844 9.36719 8.54688 8.97656C8.19531 8.54688 7.64844 8.23438 6.90625 8.03906C6.20312 7.84375 5.30469 7.72656 4.21094 7.6875C3.11719 7.64844 1.84766 7.60938 0.402344 7.57031V2.23828C3.80078 2.23828 7.04297 2.21875 10.1289 2.17969C13.2148 2.14062 16.1641 2.08203 18.9766 2.00391L19.0938 33.6445C21.3203 30.6367 24.0547 28.3125 27.2969 26.6719C30.5391 25.0312 34.2305 24.2109 38.3711 24.2109C42.2383 24.2109 45.7539 24.875 48.918 26.2031C52.082 27.5312 54.7773 29.4062 57.0039 31.8281C59.2695 34.25 61.0078 37.1406 62.2188 40.5C63.4688 43.8203 64.0938 47.5898 64.0938 51.8086C64.0938 55.9102 63.4883 59.6406 62.2773 63C61.0664 66.3594 59.3477 69.25 57.1211 71.6719C54.8945 74.0547 52.1992 75.9102 49.0352 77.2383C45.8711 78.5664 42.3555 79.2305 38.4883 79.2305ZM36.3789 30.3047C33.6055 30.3047 31.1055 30.8125 28.8789 31.8281C26.6914 32.8438 24.8164 34.25 23.2539 36.0469C21.7305 37.8047 20.5586 40.0312 19.7383 42.7266C18.918 45.3828 18.5078 48.3906 18.5078 51.75C18.5078 55.0703 18.918 58.0391 19.7383 60.6562C20.5586 63.2734 21.7305 65.5 23.2539 67.3359C24.7773 69.1719 26.6328 70.5977 28.8203 71.6133C31.0078 72.5898 33.4883 73.0781 36.2617 73.0781C38.957 73.0781 41.3984 72.5703 43.5859 71.5547C45.7734 70.5391 47.6289 69.0938 49.1523 67.2188C50.7148 65.3047 51.9062 63.0391 52.7266 60.4219C53.5469 57.7656 53.957 54.7773 53.957 51.457C53.957 48.1758 53.5273 45.2656 52.668 42.7266C51.8477 40.1875 50.6758 37.9805 49.1523 36.1055C47.6289 34.2305 45.7734 32.8047 43.5859 31.8281C41.4375 30.8125 39.0352 30.3047 36.3789 30.3047Z" fill="black"/>
<path d="M84.9531 0.949219C86.9062 0.949219 88.4492 1.4375 89.582 2.41406C90.7148 3.35156 91.2812 4.66016 91.2812 6.33984C91.2812 8.05859 90.7148 9.42578 89.582 10.4414C88.4883 11.418 86.9453 11.9062 84.9531 11.9062C83 11.9062 81.4766 11.418 80.3828 10.4414C79.2891 9.46484 78.7422 8.09766 78.7422 6.33984C78.7422 4.66016 79.2891 3.35156 80.3828 2.41406C81.4766 1.4375 83 0.949219 84.9531 0.949219ZM91.1055 68.8594C91.1055 69.7969 91.2617 70.5391 91.5742 71.0859C91.8867 71.5938 92.3945 71.9844 93.0977 72.2578C93.8008 72.4922 94.6992 72.6484 95.793 72.7266C96.9258 72.7656 98.293 72.7852 99.8945 72.7852V78C98.8789 78 97.5117 78 95.793 78C94.0742 77.9609 92.3555 77.9414 90.6367 77.9414C88.918 77.9414 87.3945 77.9414 86.0664 77.9414C84.7383 77.9023 83.957 77.8828 83.7227 77.8828C81.4961 77.8828 79.5234 77.9023 77.8047 77.9414C76.125 77.9805 74.3867 78 72.5898 78V72.7852C74.6992 72.7852 76.3398 72.7266 77.5117 72.6094C78.6836 72.4922 79.543 72.2969 80.0898 72.0234C80.6758 71.75 81.0078 71.3789 81.0859 70.9102C81.2031 70.4023 81.2617 69.7578 81.2617 68.9766V32.8828C81.2617 32.3359 81.1055 31.9258 80.793 31.6523C80.5195 31.3789 80.0508 31.1836 79.3867 31.0664C78.7227 30.9102 77.8438 30.832 76.75 30.832C75.6953 30.793 74.4062 30.7734 72.8828 30.7734V25.5586C76.2031 25.5586 79.3281 25.5391 82.2578 25.5C85.1875 25.4609 88.1367 25.3828 91.1055 25.2656V68.8594Z" fill="black"/>
<path d="M148.527 36.5742H145.012C144.23 34.6992 143.254 33.4297 142.082 32.7656C140.91 32.0625 139.309 31.7109 137.277 31.7109C135.363 31.7109 133.605 32.1602 132.004 33.0586C130.402 33.957 129.016 35.2461 127.844 36.9258C126.672 38.5664 125.754 40.5586 125.09 42.9023C124.465 45.207 124.133 47.7852 124.094 50.6367C124.055 50.6758 124.035 51.1641 124.035 52.1016C124.035 53 124.016 54.1328 123.977 55.5C123.977 56.8672 123.977 58.3516 123.977 59.9531C123.977 61.5156 123.977 63 123.977 64.4062C123.977 65.8125 123.977 67.0039 123.977 67.9805C123.977 68.918 123.977 69.4258 123.977 69.5039C123.977 70.3242 124.133 70.9688 124.445 71.4375C124.797 71.8672 125.363 72.1992 126.145 72.4336C126.926 72.6289 127.961 72.7461 129.25 72.7852C130.539 72.7852 132.121 72.7852 133.996 72.7852V78C132.746 78 131.535 78 130.363 78C129.23 77.9609 128.039 77.9414 126.789 77.9414C125.539 77.9414 124.211 77.9414 122.805 77.9414C121.438 77.9023 119.914 77.8828 118.234 77.8828C116.789 77.8828 115.48 77.9023 114.309 77.9414C113.137 77.9414 112.023 77.9414 110.969 77.9414C109.953 77.9414 108.957 77.9609 107.98 78C107.004 78 105.988 78 104.934 78V72.7852C107.16 72.7852 108.879 72.7461 110.09 72.668C111.34 72.5508 112.258 72.3555 112.844 72.082C113.43 71.8086 113.762 71.418 113.84 70.9102C113.957 70.4023 114.016 69.7578 114.016 68.9766V33.4688C114.016 32.8047 113.898 32.2969 113.664 31.9453C113.469 31.5547 113.039 31.2812 112.375 31.125C111.75 30.9297 110.852 30.832 109.68 30.832C108.547 30.793 107.062 30.7734 105.227 30.7734V25.5586C105.656 25.5586 106.32 25.5781 107.219 25.6172C108.156 25.6172 109.074 25.6172 109.973 25.6172H113.43C115.07 25.6172 116.711 25.5781 118.352 25.5C120.031 25.4219 121.75 25.3633 123.508 25.3242V35.9883C125.383 32.3164 127.98 29.4453 131.301 27.375C134.66 25.2656 138.625 24.2109 143.195 24.2109C144.914 24.2109 146.691 24.3281 148.527 24.5625V36.5742Z" fill="black"/>
<path d="M209.699 70.5C209.699 71.0078 209.816 71.418 210.051 71.7305C210.324 72.043 210.773 72.2773 211.398 72.4336C212.062 72.5898 212.941 72.6875 214.035 72.7266C215.168 72.7656 216.594 72.7852 218.312 72.7852V78C215.266 78 212.199 78.0195 209.113 78.0586C206.066 78.0977 203.156 78.1562 200.383 78.2344C200.383 78.1953 200.383 77.7852 200.383 77.0039C200.383 76.2227 200.383 75.3242 200.383 74.3086C200.383 73.293 200.363 72.2969 200.324 71.3203C200.324 70.3047 200.305 69.5625 200.266 69.0938C198.039 72.4141 195.246 74.9336 191.887 76.6523C188.566 78.3711 184.719 79.2305 180.344 79.2305C176.516 79.2305 173.02 78.5859 169.855 77.2969C166.73 75.9688 164.055 74.1133 161.828 71.7305C159.602 69.3477 157.883 66.4766 156.672 63.1172C155.461 59.7578 154.855 56.0273 154.855 51.9258C154.855 47.7461 155.461 43.957 156.672 40.5586C157.922 37.1211 159.68 34.2109 161.945 31.8281C164.211 29.4453 166.906 27.5898 170.031 26.2617C173.195 24.8945 176.691 24.2109 180.52 24.2109C184.738 24.2109 188.469 25.0508 191.711 26.7305C194.953 28.3711 197.629 30.7148 199.738 33.7617L199.855 9.85547C199.855 9.26953 199.68 8.83984 199.328 8.56641C199.016 8.25391 198.469 8.01953 197.688 7.86328C196.945 7.70703 195.969 7.62891 194.758 7.62891C193.547 7.58984 192.082 7.57031 190.363 7.57031V2.23828C193.801 2.23828 197.16 2.21875 200.441 2.17969C203.762 2.14062 206.848 2.08203 209.699 2.00391V70.5ZM182.395 30.3047C179.777 30.3047 177.395 30.832 175.246 31.8867C173.098 32.9023 171.242 34.3281 169.68 36.1641C168.156 37.9609 166.965 40.1875 166.105 42.8438C165.285 45.5 164.875 48.4688 164.875 51.75C164.875 54.9922 165.285 57.9219 166.105 60.5391C166.965 63.1172 168.156 65.3633 169.68 67.2773C171.203 69.1523 173.059 70.5977 175.246 71.6133C177.434 72.5898 179.875 73.0781 182.57 73.0781C185.305 73.0781 187.766 72.5898 189.953 71.6133C192.141 70.6367 193.996 69.2109 195.52 67.3359C197.043 65.4219 198.195 63.1758 198.977 60.5977C199.797 58.0195 200.207 55.1094 200.207 51.8672C200.207 48.5859 199.777 45.6172 198.918 42.9609C198.059 40.3047 196.848 38.0586 195.285 36.2227C193.723 34.3477 191.848 32.9023 189.66 31.8867C187.473 30.832 185.051 30.3047 182.395 30.3047Z" fill="black"/>
<path d="M222.121 24.7969C222.59 24.7969 223.391 24.8164 224.523 24.8555C225.656 24.8555 226.887 24.875 228.215 24.9141C229.582 24.9141 230.93 24.9336 232.258 24.9727C233.586 24.9727 234.699 24.9727 235.598 24.9727C237.59 24.9727 239.973 24.9531 242.746 24.9141C245.52 24.8359 248.254 24.7969 250.949 24.7969V34.2891C250.52 34.2891 249.953 34.2891 249.25 34.2891C248.547 34.25 248.098 34.2305 247.902 34.2305C246.652 34.2305 245.871 34.5039 245.559 35.0508C245.246 35.5586 245.148 36.2812 245.266 37.2188C245.422 38.6641 245.715 40.2266 246.145 41.9062C246.574 43.5469 247.023 45.1289 247.492 46.6523C248 48.293 248.586 50.1094 249.25 52.1016C249.914 54.0938 250.559 56.0469 251.184 57.9609C251.809 59.875 252.375 61.6328 252.883 63.2344C253.43 64.8359 253.84 66.0859 254.113 66.9844C255.09 63.8984 255.988 61.125 256.809 58.6641C257.16 57.6094 257.492 56.5742 257.805 55.5586C258.156 54.5039 258.469 53.5664 258.742 52.7461C259.016 51.8867 259.25 51.1836 259.445 50.6367C259.641 50.0508 259.758 49.6992 259.797 49.582L267.473 26.7891H284.816L291.438 48.0586C291.516 48.332 291.652 48.8203 291.848 49.5234C292.082 50.1875 292.336 51.0078 292.609 51.9844C292.883 52.9219 293.176 53.957 293.488 55.0898C293.801 56.2227 294.133 57.3555 294.484 58.4883C295.227 61.1836 296.086 64.1133 297.062 67.2773C298.781 61.9648 300.305 57.1992 301.633 52.9805C302.219 51.1836 302.785 49.4258 303.332 47.707C303.879 45.9883 304.367 44.4453 304.797 43.0781C305.227 41.7109 305.578 40.5977 305.852 39.7383C306.125 38.8789 306.281 38.4102 306.32 38.332C306.555 37.4727 306.809 36.6523 307.082 35.8711C306.848 35.2461 306.281 34.8555 305.383 34.6992C304.523 34.5039 303.117 34.3672 301.164 34.2891V24.7969C303.156 24.8359 305.129 24.875 307.082 24.9141C309.074 24.9531 311.066 24.9727 313.059 24.9727C315.012 24.9727 316.926 24.9531 318.801 24.9141C320.715 24.875 322.668 24.8359 324.66 24.7969V34.2891C323.254 34.3672 322.16 34.4844 321.379 34.6406C320.637 34.7578 320.031 35.0898 319.562 35.6367C319.094 36.1445 318.664 36.9062 318.273 37.9219C317.883 38.9375 317.336 40.3438 316.633 42.1406L303.391 78.8203H286.691L273.801 39.0938L260.617 78.8203H243.859L229.621 40.0898C229.074 38.7617 228.605 37.7266 228.215 36.9844C227.824 36.2422 227.355 35.6953 226.809 35.3438C226.301 34.9531 225.676 34.6992 224.934 34.582C224.23 34.4648 223.293 34.3672 222.121 34.2891V24.7969Z" fill="black"/>
<path d="M386.008 62.0625C386.008 63.6641 386.047 64.9141 386.125 65.8125C386.242 66.7109 386.457 67.375 386.77 67.8047C387.121 68.1953 387.59 68.4297 388.176 68.5078C388.762 68.5859 389.562 68.625 390.578 68.625H393.391V78C393.078 78 392.395 78 391.34 78C390.285 78 389.133 78 387.883 78C386.633 77.9609 385.422 77.9414 384.25 77.9414C383.117 77.9414 382.316 77.9414 381.848 77.9414C380.754 77.9414 379.758 77.9609 378.859 78C377.961 78 377.082 78 376.223 78C375.402 78.0391 374.543 78.0586 373.645 78.0586C372.746 78.0977 371.75 78.1367 370.656 78.1758L368.898 70.5586C368.039 71.9258 367.023 73.1562 365.852 74.25C364.68 75.3047 363.273 76.2227 361.633 77.0039C359.992 77.7461 358.098 78.3125 355.949 78.7031C353.801 79.1328 351.34 79.3477 348.566 79.3477C345.207 79.3477 342.238 78.8984 339.66 78C337.121 77.1406 334.992 75.9688 333.273 74.4844C331.594 73 330.324 71.2617 329.465 69.2695C328.605 67.2383 328.176 65.0898 328.176 62.8242C328.176 60.207 328.742 57.8438 329.875 55.7344C331.047 53.625 332.707 51.8477 334.855 50.4023C337.043 48.918 339.68 47.7852 342.766 47.0039C345.852 46.1836 349.348 45.7734 353.254 45.7734C355.793 45.7734 358.332 45.9297 360.871 46.2422C363.41 46.5156 365.812 46.9453 368.078 47.5312V40.793C368.078 37.8242 367.043 35.4609 364.973 33.7031C362.941 31.9453 359.777 31.0664 355.48 31.0664C348.371 31.0664 344.133 33.8984 342.766 39.5625L333.098 38.6836L333.449 26.9648C334.035 26.6914 334.992 26.3398 336.32 25.9102C337.648 25.4805 339.328 25.0703 341.359 24.6797C343.391 24.25 345.734 23.8984 348.391 23.625C351.047 23.3125 353.996 23.1562 357.238 23.1562C362.316 23.1562 366.672 23.5273 370.305 24.2695C373.938 24.9727 376.906 26.1055 379.211 27.668C381.555 29.2305 383.273 31.2617 384.367 33.7617C385.461 36.2227 386.008 39.2305 386.008 42.7852V62.0625ZM358.352 51.8672C354.25 51.8672 351.066 52.707 348.801 54.3867C346.535 56.0664 345.402 58.4297 345.402 61.4766C345.402 62.9219 345.656 64.0938 346.164 64.9922C346.672 65.8516 347.355 66.6914 348.215 67.5117C349.113 68.293 350.168 68.8984 351.379 69.3281C352.629 69.7578 353.957 69.9727 355.363 69.9727C357.277 69.9727 359.016 69.7188 360.578 69.2109C362.141 68.7031 363.469 67.9609 364.562 66.9844C365.695 65.9688 366.555 64.875 367.141 63.7031C367.766 62.5312 368.078 61.0273 368.078 59.1914V53.1562C366.438 52.6875 364.816 52.3555 363.215 52.1602C361.613 51.9648 359.992 51.8672 358.352 51.8672Z" fill="black"/>
<path d="M422.219 8.68359V24.7969H436.574V34.1719H422.277V57.9609C422.277 59.6797 422.316 61.1836 422.395 62.4727C422.512 63.7227 422.746 64.7773 423.098 65.6367C423.449 66.457 423.957 67.082 424.621 67.5117C425.285 67.9414 426.164 68.1562 427.258 68.1562C429.875 68.1562 431.184 66.3398 431.184 62.707L437.688 61.8867V63.7617C437.609 66.6523 437.199 69.0547 436.457 70.9688C435.754 72.8828 434.719 74.4844 433.352 75.7734C431.984 77.0234 430.324 77.9219 428.371 78.4688C426.418 79.0547 424.191 79.3477 421.691 79.3477C415.637 79.3477 411.223 77.7461 408.449 74.543C405.715 71.3008 404.348 66.8281 404.348 61.125V34.1719H395.441V25.4414C395.871 25.4414 396.633 25.4023 397.727 25.3242C398.859 25.207 400.012 25.1094 401.184 25.0312C402.512 24.9141 403.977 24.7969 405.578 24.6797C405.578 24.5625 405.617 24.1914 405.695 23.5664C405.812 22.9023 405.949 22.1211 406.105 21.2227C406.262 20.3242 406.418 19.3477 406.574 18.293C406.77 17.2383 406.926 16.2422 407.043 15.3047C407.199 14.3672 407.316 13.5469 407.395 12.8438C407.512 12.1406 407.57 11.6719 407.57 11.4375L422.219 8.68359Z" fill="black"/>
<path d="M501.262 45.1289H491.066C490.52 40.793 489.152 37.6094 486.965 35.5781C484.816 33.5078 482.004 32.4727 478.527 32.4727C476.301 32.4727 474.309 32.9414 472.551 33.8789C470.832 34.7773 469.367 36.0664 468.156 37.7461C466.984 39.4258 466.086 41.457 465.461 43.8398C464.875 46.1836 464.582 48.7812 464.582 51.6328C464.582 54.5625 464.895 57.1016 465.52 59.25C466.184 61.3594 467.121 63.2344 468.332 64.875C469.582 66.5156 471.086 67.7852 472.844 68.6836C474.602 69.543 476.613 69.9727 478.879 69.9727C482.238 69.9727 484.914 69.0156 486.906 67.1016C488.898 65.1875 490.188 62.668 490.773 59.543L503.254 61.125C502.707 64.0938 501.691 66.7305 500.207 69.0352C498.723 71.3398 496.828 73.2148 494.523 74.6602C492.258 76.1055 489.602 77.2383 486.555 78.0586C483.547 78.918 480.227 79.3477 476.594 79.3477C471.984 79.3477 467.805 78.6836 464.055 77.3555C460.305 76.0273 457.102 74.2109 454.445 71.9062C451.828 69.6016 449.797 66.7305 448.352 63.293C446.906 59.8555 446.184 56.0078 446.184 51.75C446.184 47.6484 446.906 43.8789 448.352 40.4414C449.836 37.0039 451.828 34.0547 454.328 31.5938C456.828 29.0938 459.738 27.1602 463.059 25.793C466.418 24.3867 469.992 23.6836 473.781 23.6836C476.711 23.6836 479.562 24.0938 482.336 24.9141C485.148 25.6953 487.668 27.082 489.895 29.0742L490.598 24.6797C491.301 24.7188 492.102 24.7578 493 24.7969C493.938 24.8359 494.875 24.875 495.812 24.9141C496.789 24.9531 497.746 25.0117 498.684 25.0898C499.621 25.1289 500.48 25.1875 501.262 25.2656V45.1289Z" fill="black"/>
<path d="M558.332 47.8242C558.332 45.832 558.215 43.9766 557.98 42.2578C557.746 40.5 557.297 38.9961 556.633 37.7461C555.969 36.457 555.031 35.4609 553.82 34.7578C552.609 34.0156 551.047 33.6445 549.133 33.6445C546.984 33.6445 545.129 33.957 543.566 34.582C542.004 35.207 540.676 36.0664 539.582 37.1602C538.527 38.2148 537.688 39.4648 537.062 40.9102C536.438 42.3164 535.988 43.8203 535.715 45.4219V64.9922C535.715 65.8906 535.871 66.5742 536.184 67.043C536.496 67.5117 536.965 67.8633 537.59 68.0977C538.254 68.293 539.094 68.4102 540.109 68.4492C541.125 68.4883 542.355 68.5078 543.801 68.5078V78C542.238 78 540.734 78 539.289 78C537.883 78 536.418 78 534.895 78C533.41 77.9609 531.848 77.9414 530.207 77.9414C528.566 77.9023 526.75 77.8828 524.758 77.8828C523.234 77.8828 521.809 77.9023 520.48 77.9414C519.191 77.9414 517.941 77.9414 516.73 77.9414C515.559 77.9414 514.406 77.9609 513.273 78C512.141 78 510.988 78 509.816 78V68.5078C511.613 68.5078 513.039 68.4688 514.094 68.3906C515.148 68.3125 515.949 68.1367 516.496 67.8633C517.043 67.5508 517.395 67.1016 517.551 66.5156C517.707 65.8906 517.785 65.0508 517.785 63.9961V14.0156C517.785 13.2734 517.648 12.6875 517.375 12.2578C517.102 11.7891 516.711 11.4375 516.203 11.2031C515.734 10.9688 515.168 10.8125 514.504 10.7344C513.84 10.6562 513.098 10.6172 512.277 10.6172H510.168V1.35938C512.238 1.39844 514.367 1.39844 516.555 1.35938C518.781 1.32031 520.949 1.30078 523.059 1.30078C525.09 1.30078 527.141 1.28125 529.211 1.24219C531.281 1.20312 533.43 1.125 535.656 1.00781V32.2969C538.391 29.2891 541.516 27.082 545.031 25.6758C548.547 24.2695 552.453 23.5664 556.75 23.5664C560.305 23.5664 563.312 24.0938 565.773 25.1484C568.273 26.1641 570.285 27.7461 571.809 29.8945C573.371 32.043 574.504 34.7969 575.207 38.1562C575.91 41.4766 576.262 45.4414 576.262 50.0508V63.3516C576.262 64.5234 576.34 65.4609 576.496 66.1641C576.652 66.8281 576.926 67.3359 577.316 67.6875C577.746 68.0391 578.293 68.2734 578.957 68.3906C579.621 68.4688 580.461 68.5078 581.477 68.5078H583.527V78C582.277 78 581.066 78 579.895 78C578.723 78 577.512 78 576.262 78C575.012 77.9609 573.703 77.9414 572.336 77.9414C570.969 77.9023 569.465 77.8828 567.824 77.8828C566.145 77.8828 564.582 77.9023 563.137 77.9414C561.691 77.9414 560.305 77.9414 558.977 77.9414C557.648 77.9414 556.359 77.9609 555.109 78C553.859 78 552.59 78 551.301 78V68.5078C552.824 68.5078 554.035 68.3906 554.934 68.1562C555.871 67.8828 556.594 67.5117 557.102 67.043C557.609 66.5742 557.941 66.0078 558.098 65.3438C558.254 64.6406 558.332 63.8789 558.332 63.0586V47.8242Z" fill="black"/>
<path d="M604.562 64.4648C606.086 64.4648 607.453 64.6406 608.664 64.9922C609.914 65.3438 610.969 65.832 611.828 66.457C612.727 67.043 613.41 67.7852 613.879 68.6836C614.387 69.543 614.641 70.5 614.641 71.5547C614.641 73.625 613.781 75.3438 612.062 76.7109C610.344 78.0391 607.844 78.7031 604.562 78.7031C601.359 78.7031 598.859 78.0781 597.062 76.8281C595.305 75.5781 594.426 73.8203 594.426 71.5547C594.426 69.5234 595.324 67.8438 597.121 66.5156C598.918 65.1484 601.398 64.4648 604.562 64.4648Z" fill="black"/>
<path d="M636.848 24.8555C643.527 24.8164 648.449 24.7188 651.613 24.5625V35.8125C653.098 31.7891 655.48 28.7422 658.762 26.6719C662.082 24.6016 666.164 23.5664 671.008 23.5664C671.906 23.5664 672.805 23.6055 673.703 23.6836C674.641 23.7617 675.578 23.8789 676.516 24.0352V41.7305C676.164 41.6914 675.715 41.6719 675.168 41.6719C674.66 41.6719 674.23 41.6719 673.879 41.6719C673.254 41.6719 672.531 41.6914 671.711 41.7305C670.93 41.7305 670.266 41.75 669.719 41.7891C669.289 40.1484 668.586 38.9766 667.609 38.2734C666.672 37.5703 665.363 37.2188 663.684 37.2188C662.199 37.2188 660.832 37.5117 659.582 38.0977C658.332 38.6836 657.219 39.5234 656.242 40.6172C655.305 41.6719 654.523 42.9805 653.898 44.543C653.312 46.0664 652.922 47.7656 652.727 49.6406C652.609 50.0312 652.512 50.9102 652.434 52.2773C652.355 53.6445 652.297 55.1484 652.258 56.7891C652.219 58.3906 652.199 59.9531 652.199 61.4766C652.199 62.9609 652.199 64.0352 652.199 64.6992C652.199 65.7148 652.336 66.4766 652.609 66.9844C652.922 67.4922 653.43 67.8633 654.133 68.0977C654.836 68.332 655.754 68.4688 656.887 68.5078C658.02 68.5078 659.406 68.5078 661.047 68.5078V78C659.484 78 657.941 78 656.418 78C654.934 77.9609 653.41 77.9414 651.848 77.9414C650.285 77.9414 648.625 77.9414 646.867 77.9414C645.148 77.9023 643.273 77.8828 641.242 77.8828C639.641 77.8828 638.176 77.9023 636.848 77.9414C635.559 77.9414 634.328 77.9414 633.156 77.9414C632.023 77.9414 630.891 77.9609 629.758 78C628.664 78 627.531 78 626.359 78V68.5078C628 68.5078 629.289 68.4688 630.227 68.3906C631.203 68.3125 631.906 68.1172 632.336 67.8047C633.117 67.6094 633.625 67.1992 633.859 66.5742C634.133 65.9102 634.27 64.8359 634.27 63.3516V37.5117C634.27 36.6523 634.113 36.0078 633.801 35.5781C633.527 35.1094 633.078 34.7773 632.453 34.582C631.828 34.3867 631.027 34.2695 630.051 34.2305C629.074 34.1914 627.902 34.1719 626.535 34.1719V24.7969C627.199 24.7969 630.637 24.8164 636.848 24.8555Z" fill="black"/>
<path d="M710.441 79.1719C707.121 79.1719 704.309 78.6445 702.004 77.5898C699.699 76.4961 697.824 74.875 696.379 72.7266C694.973 70.5781 693.957 67.8438 693.332 64.5234C692.707 61.2031 692.395 57.3164 692.395 52.8633V38.5078C692.395 37.4141 692.277 36.5742 692.043 35.9883C691.848 35.4023 691.477 34.9922 690.93 34.7578C690.383 34.4844 689.621 34.3281 688.645 34.2891C687.707 34.25 686.496 34.2305 685.012 34.2305V24.8555C685.637 24.8555 686.457 24.8555 687.473 24.8555C688.527 24.8555 689.582 24.875 690.637 24.9141C691.691 24.9141 692.629 24.9141 693.449 24.9141C694.309 24.9141 694.875 24.9141 695.148 24.9141C697.727 24.875 700.246 24.8359 702.707 24.7969C705.207 24.7578 707.746 24.6992 710.324 24.6211V55.207C710.324 57.3555 710.461 59.2695 710.734 60.9492C711.008 62.6289 711.477 64.0352 712.141 65.168C712.844 66.3008 713.781 67.1797 714.953 67.8047C716.125 68.3906 717.609 68.6836 719.406 68.6836C722.727 68.6836 725.422 68.1562 727.492 67.1016C729.602 66.0469 731.164 64.6797 732.18 63C732.609 61.8281 732.844 60.5586 732.883 59.1914C732.961 57.7852 733 56.3203 733 54.7969V39.6211C733 38.2539 732.883 37.2188 732.648 36.5156C732.453 35.7734 732.062 35.2461 731.477 34.9336C730.891 34.582 730.07 34.3867 729.016 34.3477C728 34.2695 726.652 34.2305 724.973 34.2305V24.8555C726.848 24.8945 728.703 24.9141 730.539 24.9141C732.375 24.9141 734.465 24.9141 736.809 24.9141C739.23 24.875 741.594 24.8359 743.898 24.7969C746.203 24.7578 748.527 24.6992 750.871 24.6211V64.9336C750.871 65.7148 750.969 66.3594 751.164 66.8672C751.398 67.3359 751.789 67.707 752.336 67.9805C752.883 68.2539 753.625 68.4297 754.562 68.5078C755.5 68.5859 756.691 68.625 758.137 68.625V78C756.301 78 754.66 78 753.215 78C751.809 77.9609 750.363 77.9414 748.879 77.9414C746.301 77.9805 743.742 78 741.203 78C738.664 78.0391 736.105 78.0977 733.527 78.1758V69.9727C730.91 73.0977 727.609 75.4219 723.625 76.9453C719.641 78.4297 715.246 79.1719 710.441 79.1719Z" fill="black"/>
</svg>
