<svg width="46" height="46" viewBox="0 0 46 46" fill="none" xmlns="http://www.w3.org/2000/svg">
<path d="M44.6524 10.1045H43.0081C42.7294 8.32591 41.9002 6.68806 40.6048 5.3962C39.0145 3.80165 36.8068 2.88704 34.5479 2.88704C32.3566 2.88704 30.2124 3.77497 28.6651 5.32315L0.394789 33.595C0.00935898 33.9804 -0.105911 34.56 0.102617 35.0637C0.311234 35.5673 0.802679 35.8956 1.34767 35.8956H18.7654V40.4177H17.2261C16.4818 40.4177 15.8785 41.0211 15.8785 41.7654C15.8785 42.5097 16.4818 43.1131 17.2261 43.1131H31.6609C32.4052 43.1131 33.0086 42.5097 33.0086 41.7654C33.0086 41.0211 32.4052 40.4177 31.6609 40.4177H27.2346V35.8956H30.2174C37.3281 35.8956 43.113 30.1113 43.113 23.0014V23V12.7998H44.6524C45.3966 12.7998 46 12.1964 46 11.4521C46 10.7078 45.3967 10.1045 44.6524 10.1045ZM15.7826 33.2002H4.60127L24.5394 13.2621V24.4434C24.5394 29.272 20.6111 33.2002 15.7826 33.2002ZM24.5394 40.4176H21.4607V35.8955H24.5394V40.4176ZM31.6678 33.0975C32.3058 28.6315 35.8486 25.0889 40.3151 24.4504C39.677 28.9165 36.1343 32.459 31.6678 33.0975ZM40.4177 21.7223C34.3806 22.3517 29.5692 27.1627 28.9398 33.2003H23.1553C25.6483 31.098 27.2347 27.9524 27.2347 24.4435V10.5668C27.9154 9.88605 29.3542 8.44684 30.5718 7.22838C31.6172 6.18224 33.0666 5.58235 34.548 5.58235C36.096 5.58235 37.6082 6.20829 38.699 7.30214C39.8074 8.40758 40.4178 9.88084 40.4178 11.4521V21.7223H40.4177Z" fill="white"/>
<path d="M34.548 12.7998C35.2923 12.7998 35.8956 12.1964 35.8956 11.4521C35.8956 10.7078 35.2923 10.1045 34.548 10.1045C33.8037 10.1045 33.2003 10.7078 33.2003 11.4521C33.2003 12.1964 33.8037 12.7998 34.548 12.7998Z" fill="white"/>
</svg>
