<svg width="32" height="32" viewBox="0 0 32 32" fill="none" xmlns="http://www.w3.org/2000/svg">
<circle cx="16" cy="16" r="16" fill="#285B6C"/>
<path d="M23.8449 20.0924C23.8449 20.026 23.7785 20.026 23.7785 19.9596C23.5128 19.4282 22.915 18.764 22.118 18.0334C21.7195 17.7013 21.5203 17.4357 21.3874 17.3028C21.1882 17.0372 21.1882 16.8379 21.2546 16.5722C21.321 16.373 21.5867 16.0409 22.0516 15.4431C22.3173 15.111 22.4501 14.9118 22.6494 14.7125C23.6456 13.3842 24.1106 12.5207 23.9777 12.1222L23.9113 12.0558C23.8449 11.9894 23.7785 11.923 23.6456 11.923C23.5128 11.8565 23.3136 11.8565 23.1143 11.923H20.5904C20.524 11.923 20.524 11.923 20.3911 11.923C20.3247 11.923 20.2583 11.923 20.2583 11.923H20.1919H20.1255L20.0591 11.9894C19.9926 12.0558 19.9926 12.0558 19.9926 12.1222C19.727 12.8528 19.3949 13.4506 19.0628 14.1147C18.8635 14.4468 18.6643 14.7789 18.465 15.0446C18.2658 15.3103 18.1329 15.5095 18.0001 15.6424C17.8672 15.7752 17.7344 15.8416 17.668 15.9745C17.6016 16.0409 17.4687 16.1073 17.4687 16.0409C17.4023 16.0409 17.3359 16.0409 17.3359 15.9745C17.2695 15.908 17.2031 15.8416 17.1366 15.7752C17.0702 15.7088 17.0702 15.576 17.0038 15.4431C17.0038 15.3103 17.0038 15.1774 17.0038 15.111C17.0038 15.0446 17.0038 14.8454 17.0038 14.7125C17.0038 14.5133 17.0038 14.3804 17.0038 14.314C17.0038 14.1147 17.0038 13.8491 17.0038 13.5834C17.0038 13.3177 17.0038 13.1185 17.0038 12.9856C17.0038 12.8528 17.0038 12.6535 17.0038 12.5207C17.0038 12.3215 17.0038 12.1886 17.0038 12.1222C17.0038 12.0558 16.9374 11.9229 16.9374 11.8565C16.871 11.7901 16.8046 11.7237 16.7381 11.6573C16.6717 11.5909 16.5389 11.5909 16.4725 11.5244C16.1404 11.458 15.7419 11.3916 15.2769 11.3916C14.2143 11.3916 13.4836 11.458 13.218 11.5909C13.0851 11.6573 12.9523 11.7237 12.8859 11.8565C12.753 11.9894 12.753 12.0558 12.8195 12.0558C13.1515 12.1222 13.4172 12.255 13.5501 12.4543L13.6165 12.5871C13.6829 12.6536 13.6829 12.7864 13.7493 12.9856C13.8157 13.1849 13.8157 13.3841 13.8157 13.6498C13.8157 14.0483 13.8157 14.4468 13.8157 14.7125C13.8157 15.0446 13.7493 15.2439 13.7493 15.4431C13.7493 15.6424 13.6829 15.7752 13.6165 15.8416C13.5501 15.9745 13.5501 16.0409 13.4836 16.0409C13.4836 16.0409 13.4836 16.1073 13.4172 16.1073C13.3508 16.1073 13.2844 16.1737 13.1515 16.1737C13.0851 16.1737 12.9523 16.1073 12.8859 16.0409C12.753 15.9745 12.6202 15.8416 12.5538 15.7088C12.421 15.576 12.2881 15.3767 12.1553 15.111C12.0224 14.8453 11.8232 14.5797 11.6903 14.1812L11.5575 13.9155C11.4911 13.7827 11.3583 13.517 11.2254 13.1849C11.0926 12.8528 10.9597 12.5871 10.8269 12.255C10.7605 12.1222 10.6941 12.0558 10.6277 11.9894H10.5612C10.5612 11.9894 10.4948 11.923 10.4284 11.923C10.362 11.923 10.2956 11.8565 10.2291 11.8565H7.83808C7.57241 11.8565 7.43957 11.9229 7.37315 11.9894L7.30673 12.0558C7.30673 12.0558 7.30673 12.1222 7.30673 12.1886C7.30673 12.255 7.30674 12.3215 7.37315 12.4543C7.70525 13.2513 8.10375 14.0483 8.50226 14.8454C8.90077 15.576 9.29929 16.2401 9.56496 16.7051C9.89705 17.17 10.1627 17.6349 10.4948 18.0334C10.8269 18.4319 11.0262 18.6976 11.0926 18.8305C11.2254 18.9633 11.2918 19.0297 11.3582 19.0961L11.5575 19.2954C11.6903 19.4282 11.8896 19.6275 12.1553 19.8267C12.4209 20.026 12.753 20.2252 13.0851 20.4245C13.4172 20.6237 13.8157 20.7566 14.2142 20.8894C14.6792 21.0223 15.0777 21.0887 15.4762 21.0223H16.4725C16.6717 21.0223 16.8046 20.9558 16.9374 20.823L17.0038 20.7566C17.0038 20.6902 17.0702 20.6902 17.0702 20.6237C17.0702 20.5573 17.0702 20.4909 17.0702 20.3581C17.0702 20.0924 17.0702 19.8931 17.1366 19.6939C17.2031 19.4946 17.2031 19.3618 17.2695 19.229C17.3359 19.0961 17.4023 19.0297 17.4687 18.9633C17.5352 18.8969 17.6016 18.8305 17.6016 18.8305H17.668C17.8008 18.764 18.0001 18.8305 18.1329 18.9633C18.3322 19.0961 18.5314 19.2954 18.6643 19.4946C18.7971 19.6939 18.9964 19.8931 19.262 20.1588C19.5277 20.4245 19.727 20.6238 19.8598 20.6902L20.0591 20.823C20.1919 20.8894 20.3247 20.9558 20.524 21.0223C20.7232 21.0887 20.8561 21.0887 20.9889 21.0887L23.2471 21.0223C23.4464 21.0223 23.6456 20.9558 23.7785 20.8894C23.9113 20.823 23.9777 20.7566 23.9777 20.6237C23.9777 20.5573 23.9777 20.4245 23.9777 20.3581C23.8449 20.2252 23.8449 20.1588 23.8449 20.0924Z" fill="white"/>
</svg>
