<svg width="46" height="34" viewBox="0 0 46 34" fill="none" xmlns="http://www.w3.org/2000/svg">
<path d="M0 21.9419C0 18.4496 1.20488 14.7432 3.61464 10.8227C6.05741 6.86919 10.4478 3.26163 16.7858 0L17.9742 2.22384C14.8052 4.46415 12.4614 6.34205 10.9429 7.85756C8.26911 10.5921 6.93219 13.2112 6.93219 15.7151C6.93219 16.5717 7.17976 17.1318 7.67492 17.3953C8.17008 17.6919 8.59921 17.8401 8.96233 17.8401C10.2167 17.6754 11.042 17.593 11.4381 17.593C13.5508 17.593 15.2838 18.3672 16.6372 19.9157C17.9907 21.4312 18.6674 23.2762 18.6674 25.4506C18.6674 27.8886 17.9247 29.9312 16.4392 31.5785C14.9537 33.1928 12.9071 34 10.2992 34C7.22928 34 4.73699 32.9128 2.82239 30.7384C0.940797 28.531 0 25.5988 0 21.9419ZM27.3326 21.9419C27.3326 18.2519 28.62 14.4467 31.1948 10.5262C33.7696 6.60562 38.0775 3.0969 44.1184 0L45.3068 2.22384C42.3358 4.29942 40.0581 6.12791 38.4736 7.7093C35.6677 10.5097 34.2648 13.1124 34.2648 15.5174C34.2648 16.2093 34.4464 16.7694 34.8095 17.1977C35.1726 17.626 35.6677 17.8401 36.2949 17.8401C37.5493 17.6754 38.3746 17.593 38.7707 17.593C40.8504 17.593 42.5669 18.3508 43.9203 19.8663C45.3068 21.3818 46 23.2432 46 25.4506C46 28.0203 45.2408 30.0959 43.7223 31.6773C42.2038 33.2258 40.1407 34 37.5328 34C34.5619 34 32.1191 32.9128 30.2045 30.7384C28.2899 28.531 27.3326 25.5988 27.3326 21.9419Z" fill="#285B6C"/>
</svg>
