<svg width="32" height="32" viewBox="0 0 32 32" fill="none" xmlns="http://www.w3.org/2000/svg">
<circle cx="16" cy="16" r="16" fill="#285B6C"/>
<path d="M24.48 11.9199C23.92 12.1599 23.28 12.3199 22.64 12.3999C23.28 11.9999 23.84 11.3599 24.08 10.6399C23.44 11.0399 22.8 11.2799 22 11.4399C21.44 10.7999 20.56 10.3999 19.68 10.3999C17.92 10.3999 16.48 11.8399 16.48 13.5999C16.48 13.8399 16.48 14.0799 16.56 14.3199C13.92 14.1599 11.52 12.8799 9.92 10.9599C9.68 11.4399 9.52 11.9999 9.52 12.5599C9.52 13.6799 10.08 14.6399 10.96 15.1999C10.4 15.1999 9.92 15.0399 9.52 14.7999C9.52 16.3199 10.64 17.6799 12.08 17.9199C11.84 17.9999 11.52 17.9999 11.2 17.9999C10.96 17.9999 10.8 17.9999 10.56 17.9199C10.96 19.1999 12.16 20.1599 13.6 20.1599C12.48 21.0399 11.12 21.5199 9.6 21.5199C9.36 21.5199 9.12 21.5199 8.8 21.4399C10.24 22.3199 11.92 22.8799 13.76 22.8799C19.68 22.8799 22.88 17.9999 22.88 13.7599V13.3599C23.52 13.1199 24.08 12.5599 24.48 11.9199Z" fill="white"/>
</svg>
